# xmcd
#
# Track frame offsets: 
#        150
#        16045
#        28727
#        46802
#        59225
#        73262
#        95650
#        111000
#        127262
#        141000
#        158027
#        169152
#        186575
#        203577
#        217232
#
# Disc length: 3070 seconds
#
# Revision: 1
# Processed by: cddbd v1.5.2PL0 Copyright (c) Steve Scherf et al.
# Submitted via: ExactAudioCopyFreeDBPlugin 1.0
#
DISCID=e70bfc0f
DTITLE=David Wilcox - Rockin' The Boogie
DYEAR=2002
DGENRE=Rock
TTITLE0=Rockin' The Boogie
TTITLE1=Play That Guitar Rag
TTITLE2=That Hypnotizin' Boogie
TTITLE3=My Eyes Keep Me In Trouble
TTITLE4=Hot Hot Papa
TTITLE5=Rock Me
TTITLE6=The Grind
TTITLE7=Can't Stop Rockin'
TTITLE8=Cheap Beer joint
TTITLE9=Rattlesnakin' Daddy
TTITLE10=Downtown Came Uptown
TTITLE11=The Groove
TTITLE12=Bad Feeling
TTITLE13=Preachin' The Blues
TTITLE14=Dr. Wilcox
EXTD=
EXTT0=
EXTT1=
EXTT2=
EXTT3=
EXTT4=
EXTT5=
EXTT6=
EXTT7=
EXTT8=
EXTT9=
EXTT10=
EXTT11=
EXTT12=
EXTT13=
EXTT14=
PLAYORDER=
